<svg id="Capa_1" enable-background="new 0 0 512 512" height="512" viewBox="0 0 512 512" width="512" xmlns="http://www.w3.org/2000/svg"><g><path d="m211 202.5h45v242h-45z" fill="#fff5de"/><path d="m256 202.5h45v242h-45z" fill="#ffd478"/><path d="m241 202.5h30v242h-30z" fill="#ffe7ad"/><path d="m226 97.5h45v105h-45z" fill="#ffa061"/><path d="m256 97.5h30v105h-30z" fill="#ff8053"/><path d="m417.75 97.5h-30v30h30c8.284 0 15-6.716 15-15s-6.716-15-15-15z" fill="#ffa061"/><path d="m402.75 112.5c0-8.284-6.716-15-15-15h-56.75l-31.584-63.167c-8.222-16.445-25.03-26.833-43.416-26.833s-35.194 10.388-43.416 26.833l-31.584 63.167h-86.75c-8.284 0-15 6.716-15 15s6.716 15 15 15h293.5c8.284 0 15-6.716 15-15z" fill="#ffbb6e"/><path d="m474.5 339.5-45 45h30c24.853 0 45-20.147 45-45z" fill="#ffbb6e"/><path d="m474.5 339.5h-143.5c0 24.853 20.147 45 45 45h53.5c24.853 0 45-20.147 45-45z" fill="#ffd478"/><path d="m151 339.5-45 45h30c24.853 0 45-20.147 45-45z" fill="#ffbb6e"/><path d="m151 339.5h-143.5c0 24.853 20.147 45 45 45h53.5c24.853 0 45-20.147 45-45z" fill="#ffd478"/><path d="m350.25 429.5h-218.5l-21.68 32.519c-5.198 7.797-13.949 12.481-23.32 12.481v15h326.528z" fill="#ffbb6e"/><path d="m401.93 462.019-21.68-32.519h-36.055l21.68 32.519c5.198 7.797 13.949 12.481 23.32 12.481l18.028 15 18.028-15c-9.372 0-18.123-4.683-23.321-12.481z" fill="#ffa061"/><path d="m301 187.5h-30v30h30c8.284 0 15-6.716 15-15s-6.716-15-15-15z" fill="#ffa061"/><path d="m286 202.5c0-8.284-6.716-15-15-15h-59.816c-8.284 0-15 6.716-15 15s6.716 15 15 15h59.816c8.284 0 15-6.716 15-15z" fill="#ffbb6e"/><path d="m425.25 474.5h-30l30 30h30c0-16.569-13.431-30-30-30z" fill="#ff8053"/><path d="m395.25 474.5h-308.5c-16.569 0-30 13.431-30 30h368.5c0-16.569-13.431-30-30-30z" fill="#ffa061"/><circle cx="256" cy="52.5" fill="#ffd478" r="15"/><path d="m425.25 467c-6.879 0-13.264-3.417-17.08-9.141l-21.68-32.519c-1.391-2.086-3.732-3.34-6.24-3.34h-71.75v-198.29c8.729-3.096 15-11.432 15-21.21 0-12.407-10.094-22.5-22.5-22.5h-7.5v-45h124.25c12.406 0 22.5-10.093 22.5-22.5s-10.094-22.5-22.5-22.5h-82.115l-29.511-59.021c-9.553-19.109-28.76-30.979-50.124-30.979s-40.57 11.87-50.125 30.979l-29.51 59.021h-82.115c-12.407 0-22.5 10.093-22.5 22.5s10.093 22.5 22.5 22.5h124.25v45h-7.5c-12.407 0-22.5 10.093-22.5 22.5 0 9.778 6.271 18.114 15 21.21v198.29h-71.75c-2.508 0-4.85 1.253-6.24 3.34l-21.68 32.519c-3.816 5.724-10.201 9.141-17.08 9.141-20.678 0-37.5 16.822-37.5 37.5 0 4.142 3.358 7.5 7.5 7.5h398.5c4.143 0 7.5-3.358 7.5-7.5 0-20.678-16.822-37.5-37.5-37.5zm-146.75-45v-197h15v197zm-191.75-309.5c0-4.136 3.364-7.5 7.5-7.5h86.75c2.841 0 5.438-1.605 6.708-4.146l31.583-63.167c6.998-13.994 21.063-22.687 36.709-22.687s29.712 8.693 36.708 22.687l31.584 63.167c1.271 2.541 3.867 4.146 6.708 4.146h86.75c4.136 0 7.5 3.364 7.5 7.5s-3.364 7.5-7.5 7.5h-323.5c-4.136 0-7.5-3.364-7.5-7.5zm146.75 22.5h45v45h-45zm-22.5 60h90c4.136 0 7.5 3.364 7.5 7.5s-3.364 7.5-7.5 7.5h-90c-4.136 0-7.5-3.364-7.5-7.5s3.364-7.5 7.5-7.5zm7.5 30h15v135.887c0 4.142 3.358 7.5 7.5 7.5s7.5-3.358 7.5-7.5v-135.887h15v197h-15v-31.113c0-4.142-3.358-7.5-7.5-7.5s-7.5 3.358-7.5 7.5v31.113h-15zm-102.189 241.179 19.453-29.179h240.473l19.453 29.179c.187.281.391.547.585.821h-280.549c.194-.274.397-.54.585-.821zm-50.776 30.821c3.095-8.73 11.437-15 21.215-15h338.5c9.778 0 18.119 6.27 21.215 15z"/><path d="m136 392c28.949 0 52.5-23.551 52.5-52.5 0-1.117-.25-2.219-.729-3.227l-86.75-182c-1.245-2.61-3.879-4.273-6.771-4.273s-5.526 1.663-6.771 4.273l-86.75 182c-.479 1.008-.729 2.11-.729 3.227 0 28.949 23.551 52.5 52.5 52.5zm-49.25-60h-67.367l67.367-141.334zm15-141.334 67.367 141.334h-67.367zm-85.989 156.334h156.978c-3.485 17.095-18.63 30-36.739 30h-83.5c-18.109 0-33.254-12.905-36.739-30z"/><path d="m511.271 336.273-86.75-182c-1.244-2.61-3.879-4.273-6.771-4.273s-5.526 1.663-6.771 4.273l-86.75 182c-.48 1.008-.729 2.11-.729 3.227 0 28.949 23.552 52.5 52.5 52.5h83.5c28.948 0 52.5-23.551 52.5-52.5 0-1.117-.249-2.219-.729-3.227zm-101.021-4.273h-67.366l67.366-141.334zm15-141.334 67.366 141.334h-67.366zm34.25 186.334h-83.5c-18.109 0-33.254-12.905-36.739-30h156.977c-3.484 17.095-18.629 30-36.738 30z"/><path d="m256 30c-12.407 0-22.5 10.093-22.5 22.5s10.093 22.5 22.5 22.5c12.406 0 22.5-10.093 22.5-22.5s-10.094-22.5-22.5-22.5zm0 30c-4.136 0-7.5-3.364-7.5-7.5s3.364-7.5 7.5-7.5 7.5 3.364 7.5 7.5-3.364 7.5-7.5 7.5z"/></g></svg>